<?xml version="1.0" encoding="utf-8"?>
<!-- Generator: Adobe Illustrator 25.2.0, SVG Export Plug-In . SVG Version: 6.00 Build 0)  -->
<svg version="1.1"
	 id="svg3476" sodipodi:docname="CSS3.svg" xmlns:cc="http://creativecommons.org/ns#" xmlns:dc="http://purl.org/dc/elements/1.1/" xmlns:inkscape="http://www.inkscape.org/namespaces/inkscape" xmlns:rdf="http://www.w3.org/1999/02/22-rdf-syntax-ns#" xmlns:sodipodi="http://sodipodi.sourceforge.net/DTD/sodipodi-0.dtd" xmlns:svg="http://www.w3.org/2000/svg"
	 xmlns="http://www.w3.org/2000/svg" xmlns:xlink="http://www.w3.org/1999/xlink" x="0px" y="0px" viewBox="0 0 290.2 330.2"
	 style="enable-background:new 0 0 290.2 330.2;" xml:space="preserve">
<style type="text/css">
	.st0{fill:#264DE4;}
	.st1{fill:#2965F1;}
	.st2{fill:#EBEBEB;}
	.st3{fill:#FFFFFF;}
</style>
<sodipodi:namedview  bordercolor="#666666" borderopacity="1.0" fit-margin-bottom="0" fit-margin-left="0" fit-margin-right="0" fit-margin-top="0" id="base" inkscape:current-layer="layer1" inkscape:cx="181.367" inkscape:cy="256" inkscape:document-units="px" inkscape:pageopacity="0.0" inkscape:pageshadow="2" inkscape:window-height="704" inkscape:window-maximized="1" inkscape:window-width="1366" inkscape:window-x="0" inkscape:window-y="27" inkscape:zoom="0.35" pagecolor="#ffffff" showgrid="false">
	</sodipodi:namedview>
<g id="layer1" transform="translate(-193.633,-276.3622)" inkscape:groupmode="layer" inkscape:label="Calque 1">
	<g id="g3013" transform="translate(119,276.3622)">
		<polygon id="polygon2989" class="st0" points="364.8,1.1 338.4,297.2 219.5,330.2 101,297.3 74.6,1.1 		"/>
		<polygon id="polygon2991" class="st1" points="315.8,278.4 338.3,25.3 219.7,25.3 219.7,305 		"/>
		<polygon id="polygon2993" class="st2" points="135.2,135.1 138.4,171.5 219.7,171.5 219.7,135.1 		"/>
		<polygon id="polygon2995" class="st2" points="219.7,61.6 219.6,61.6 128.6,61.6 131.9,97.9 219.7,97.9 		"/>
		<polygon id="polygon2997" class="st2" points="219.7,267.3 219.7,229.5 219.6,229.5 179.1,218.6 176.5,189.6 156.9,189.6 
			140.1,189.6 145.1,246.7 219.6,267.3 		"/>
		<polygon id="polygon3005" class="st3" points="264.3,171.5 260.1,218.6 219.6,229.5 219.6,267.3 294.1,246.7 294.6,240.5 
			303.2,144.9 304,135.1 310.6,61.6 219.6,61.6 219.6,97.9 270.8,97.9 267.5,135.1 219.6,135.1 219.6,171.5 		"/>
	</g>
</g>
</svg>
