<svg width="53" height="53" viewBox="0 0 53 53" fill="none" xmlns="http://www.w3.org/2000/svg">
<g clip-path="url(#clip0_100_22)">
<path d="M47.2938 24.3481L26.4982 44.8461L5.70263 24.3448C4.39895 23.0511 2.28144 23.0511 0.977758 24.3448C-0.325919 25.6386 -0.325919 27.733 0.977758 29.0235L24.1359 51.8508C25.3898 53.0915 27.6036 53.0981 28.8641 51.8508L52.0222 29.0202C53.3259 27.7297 53.3259 25.632 52.0222 24.3415C50.715 23.0546 48.5975 23.0546 47.2938 24.3481Z" fill="white"/>
<path d="M24.1359 28.6926C25.3898 29.9333 27.6036 29.9399 28.8641 28.6926L52.0222 5.8653C53.3259 4.57153 53.3259 2.47712 52.0222 1.18664C50.7186 -0.107136 48.601 -0.107136 47.2974 1.18664L26.4985 21.6846L5.70263 1.18664C4.39895 -0.107136 2.28144 -0.107136 0.977758 1.18664C-0.325919 2.48042 -0.325919 4.57483 0.977758 5.8653L24.1359 28.6926Z" fill="white"/>
</g>
<defs>
<clipPath id="clip0_100_22">
<rect width="53" height="53" fill="white"/>
</clipPath>
</defs>
</svg>
